<svg version="1.0" xmlns="http://www.w3.org/2000/svg" width="682.667" height="682.667" viewBox="0 0 512 512"><path d="M74.7 1c-34.6 6.3-61 29.9-71.4 63.7C.9 72.6.7 75.1.7 88.5s.2 15.9 2.6 23.8c10 32.5 36.2 57.1 67 62.8 5.5 1 6.7 1.6 6.1 2.8-.4.9-2.4 6.4-4.5 12.3-8.2 23-11.3 41-11.3 65.8.1 23.6 2.9 41.8 9.8 62 1.4 4.1 2.6 7.8 2.6 8.1 0 .3-2.4 1.1-5.4 1.8-3 .7-9.7 3.3-14.8 5.9-25.2 12.7-42.6 34-50 61.3-3.2 12-3.2 33.6.1 45.9 9 33.7 34.3 59 68.1 68.1 12.1 3.3 33.7 3.3 46 0 25.4-6.8 46.9-23.5 59.4-46.3 3.6-6.5 8.6-19.5 8.6-22.3 0-2 .2-1.9 9 1.1 20.1 6.8 38.9 9.8 62 9.8s41.9-3 62-9.8c4.1-1.4 7.8-2.6 8.1-2.6.3 0 1.1 2.4 1.8 5.4.7 3 3.3 9.7 5.9 14.8 12.6 25.1 34.2 42.7 61.2 49.9 12.3 3.3 33.9 3.3 46 0 16.4-4.4 30-12.1 41.8-23.4 6.1-6 7.2-7.5 7.2-10.4 0-4.2-3-7.3-7-7.3-2.3 0-4.7 1.6-10.5 7-44.8 41.5-115.4 21.1-131.2-38-2.6-9.9-2.4-29.2.5-39.3 7.9-27.6 28.3-48 55.9-55.9 10.1-2.9 29.4-3.1 39.3-.5 41 11 66.4 50.6 58.4 91.2-2.9 14.7-2.9 15.9.1 18.4 6 4.7 10.6 1.2 13.8-10.4 3.1-11.6 3-33.4-.2-45.5-7.4-27.7-26.5-50.6-52.4-62.5-4-1.9-9.5-3.9-12.2-4.6-2.8-.6-5.1-1.3-5.3-1.5-.2-.1 1-4.4 2.7-9.6 7-21.2 9.5-37.6 9.5-60.8 0-23.1-3-41.9-9.8-62-3-8.8-3.1-9-1.1-9 2.8 0 15.8-5 22.3-8.6 22.8-12.5 39.5-34 46.3-59.4 3.3-12.3 3.3-33.9 0-46-4.4-16.4-12-30-23.5-41.9-12.6-13-27-21.5-44.6-26.3-12.2-3.3-33.8-3.3-45.9 0-20.9 5.7-38.8 17.6-52 34.7-5.8 7.6-13.6 23-15.2 30.1-1 4.3-1.6 5.4-2.8 5-24-7.6-34.9-10-53.6-11.7-30-2.6-62.9 2.8-93.6 15.5-1.2.6-1.8-.6-2.8-6.1-5.7-30.8-30.6-57.4-62.8-66.9C102.6.6 83.7-.7 74.7 1zm32.8 16.5c3.3.8 9.8 3.5 14.5 5.7 6.8 3.4 10.3 6 17.6 13.3 10.1 9.9 15 17.8 19.2 30.3 2.3 6.8 2.6 9.4 2.6 21.7 0 13.4-.1 14.4-3.3 23-4.4 12.2-4.9 15.7-2.2 18.4 2.3 2.3 6.1 2.7 9.3 1 3.7-2 9.9-19.3 11.4-32.1l.6-5.7 8.4-3.5c40.8-17.1 85.7-18.8 127.7-4.9l10.7 3.5v6.3c0 12.3 4.4 30.4 10 41.5 8.6 16.9 25 33.4 42 42 11 5.6 29.2 10 41.5 10h6.3l3.5 10.7c12.4 37.4 12.4 77.2 0 114.5l-3.5 10.8h-6.3c-7.9 0-21.7 2.4-29.8 5.1-26.9 9.3-49.3 31.7-58.6 58.6-2.7 8.1-5.1 21.9-5.1 29.8v6.3l-10.7 3.5c-37.4 12.4-77.2 12.4-114.5 0l-10.8-3.5v-6.3c0-12.3-4.4-30.4-10-41.5-8.6-16.9-25-33.4-42-42-11-5.6-29.2-10-41.5-10h-6.3l-3.5-10.7c-13.9-42-12.2-86.9 4.9-127.6l3.4-8.3 10.1-1.7c11.7-2 22.6-6.1 32.4-12.2 8.7-5.4 10.8-7.7 10.8-11.5 0-7.4-7.2-9.2-15-3.6-6.6 4.6-13.5 8-22.3 10.8-6.4 2-9.5 2.3-21 2.2-11.7 0-14.5-.4-21.2-2.6-12.5-4.1-20.3-9.1-30.3-19.2-13.7-13.7-19.9-27.7-21.2-47.1C13 56.6 37.7 24.7 74 16.5c8-1.8 25-1.3 33.5 1zm324.7-1.1c32.5 6.3 57.2 30.9 63.4 63.3 7.6 39.9-17.2 79.1-57.3 90.5-11.1 3.2-29.5 3.2-40.6 0-49.1-14-72.6-67.3-49.7-112.4 15.6-30.6 50.7-47.8 84.2-41.4zM114.8 342c27.1 7.6 47.6 28.3 55.4 55.7 3.2 11.1 3.2 29.5 0 40.6-8.5 29.7-32.1 51.6-61.9 57.3-36.7 7-74.7-14.2-87.9-49.2-17.5-46.4 10.3-96.3 59.1-106 9.4-1.8 25.8-1.1 35.3 1.6z"/><path d="M90.4 46.4c-5.8 2.7-12 9.4-13.6 14.8-.7 2.3-1.7 3.8-2.7 3.8-3.1 0-12-4.9-16.4-8.9-2.4-2.2-5.6-4.5-7.1-5.1-6.1-2.3-11.1 1.7-13.2 10.7-3.6 15.1.1 30.3 9.7 40.8l3.9 4.3-3.4.6c-5.3 1-7.9 4.9-7.3 10.9.9 9.5 8.3 13.8 24.8 14.5 22 .9 41.1-6.8 53-21.5 4.4-5.5 9.5-15.6 11.3-22.4.7-3 3-7.8 5-10.7 3.7-5.6 6.6-13.6 6.6-18.4 0-4.1-2.6-8.5-6-10.3-3.5-1.8-5.6-1.9-11.3-.3-4.1 1-4.8.9-10.7-2-8-4.1-15.1-4.3-22.6-.8zM108.1 62c3.6 2.4 5.4 3 10.2 3 3.1 0 5.7.3 5.7.7 0 .8-1.8 3.7-5.3 8.5-.9 1.4-2.4 5.2-3.3 8.4-.8 3.2-2.6 8.2-3.9 11.1C105 108.1 87.8 118.1 70 118l-6.5-.1 3-1.6c4.9-2.6 7.5-5.5 7.5-8.4 0-4.5-1-5.9-6.2-8.5-7.4-3.8-13.4-10.2-15.2-16.5-1.5-5.1-2.1-11.9-1.1-11.9.3 0 2.3 1.1 4.3 2.5 5.5 3.6 14.6 6.6 22.1 7.2 5.8.5 7 .2 9.4-1.7 1.9-1.5 2.7-3.1 2.7-5.3 0-12.9 8.4-18.3 18.1-11.7zm131.3 93.4c-22.6 4.3-40.1 13.4-55.4 28.6-13 13.1-21.8 28.5-26.8 46.9-2.2 8.4-2.5 11.6-2.5 25.1 0 13.5.3 16.7 2.5 25 5.1 19 14.2 34.3 28.5 48.1 13.8 13.3 28.6 21.5 47 26.1 13.1 3.3 35.1 3.1 48.3-.4 19-5.1 34.3-14.1 48.1-28.5 13.3-13.8 21.5-28.6 26.1-47 3.3-13.2 3.1-35.1-.4-48.4-9.9-36.7-37.3-64.2-73.7-73.6-11.9-3.1-31-3.9-41.7-1.9zm37.6 16.2c14.9 3.8 30.2 12.7 41.1 24.1 8.1 8.3 11.9 13.9 16.9 24.6 5.9 12.8 7.4 20.1 7.4 35.7 0 15.6-1.5 22.9-7.4 35.6-3.5 7.7-11.8 21-12.5 20.2-.2-.2-2.4-4.4-4.9-9.4-5.1-10.2-13.4-19.9-22-25.9-5.1-3.5-5.4-3.9-4.1-5.9 3.4-5.3 4.7-13.6 4.3-27.5-.3-12.8-.5-14-3.5-20.4-2-4.1-5.2-8.6-8.2-11.6-20-19.5-52.5-13.5-64.4 11.7-3 6.3-3.2 7.5-3.5 20.3-.4 13.9.9 22.2 4.3 27.5 1.3 2 1 2.4-4 5.8-9.9 6.9-20.2 19.5-24.1 29.8-.9 2.3-2 4.7-2.4 5.1-2.2 2.4-15.4-22.3-18.6-34.8-2.5-9.6-2.5-31.3-.1-40.5 4.2-15.8 10.9-27.9 21.7-39.3 13.4-14.2 28.5-22.6 47.5-26.3 8.8-1.7 27.6-1.1 36.5 1.2zm-13.9 44c4.1 1.2 6.6 2.8 10.5 6.8 6.6 6.7 7.7 10.9 7.3 25.9-.4 10.6-.6 11.7-3.4 16.3-10.1 16.3-32.9 16.3-43 0-2.8-4.6-3-5.7-3.3-16.5-.4-12.8.5-17.5 4.6-23.2 3.3-4.5 7.7-7.7 13.4-9.4 5.7-1.8 7.4-1.8 13.9.1zm-26.7 71.3c7.5 4.6 20.5 6.4 29.1 4 2.2-.6 6.4-2.3 9.2-3.7l5.3-2.5 3.7 1.9c2 1 6.7 4.9 10.4 8.5 7.2 7.1 13.6 18.4 14.6 25.6.5 3.9.4 4.2-4.2 7.3-6.7 4.6-19.9 10.5-27.8 12.5-23.4 5.7-49.6.9-69.6-12.8-4.1-2.8-4.3-3.1-3.8-7 1.4-10 12.2-25.6 22.7-32.6 5.3-3.6 6.3-3.7 10.4-1.2zm158-231c-1.7 1-3.6 3.4-4.3 5.2-1.8 5.2-1.5 64 .4 68.5 1.6 3.9 7.2 6.9 11 6 3.1-.8 55.3-31.1 58.1-33.7 3.2-3 3.9-7.1 1.9-11.2-1.3-2.9-5.6-5.7-29.7-19.6-15.5-9-29.5-16.5-31.2-16.7-2-.3-4.2.2-6.2 1.5zm29.1 27.7c10.2 5.9 18.5 10.9 18.5 11.3 0 .6-36.4 22.1-37.5 22.1-.3 0-.5-9.9-.5-22s.2-22 .5-22 8.9 4.8 19 10.6zm-369 284.1c-4.4 2.3-8.4 6.3-10.8 10.8-2.1 3.9-2.2 5-2.2 39.5s.1 35.6 2.2 39.5c2.5 4.7 6.4 8.5 11.3 11.1 3.2 1.8 6.3 1.9 39 1.9 34.5 0 35.6-.1 39.5-2.2 5.1-2.7 9-6.8 10.9-11.5 1.4-3.1 1.6-9.3 1.6-39 0-39-.2-40-6.6-46-6.1-5.7-7.1-5.8-46.1-5.8-30.6.1-36.2.3-38.8 1.7zm74.7 15c1.7 1.5 1.8 3.9 1.8 35.3 0 33 0 33.7-2.1 35.6-2 1.8-4.1 1.9-35 1.9H61.1l-2.3-2.3-2.3-2.3v-32.8c0-30.9.1-33 1.9-35 1.9-2.1 2.6-2.1 35.4-2.1 29.8 0 33.7.2 35.4 1.7z"/><path d="M84.5 397.7c-13.9 7.3-17.1 24.4-6.6 35.6 8.5 9.3 23.5 9.3 32.3 0 10.4-10.9 6.4-30-7.4-35.7-4.8-2-14.4-2-18.3.1zm14.7 15c2.3 2 2.4 8 .1 10.5-2 2.3-8 2.4-10.5.1-2.3-2-2.4-8-.1-10.5 2-2.3 8-2.4 10.5-.1zm317.1-46.2c-5.1 2.6-9.1 7.2-11.2 12.8-.6 1.6-1.1 8.7-1.1 15.8V408h-6.5c-7.6 0-11 1.3-12.5 4.9-1.3 3.3 0 7.5 2.9 9 1.1.6 5.1 1.1 9 1.1h7.1v25.3c0 25.2 0 25.4 2.3 27.5 3.3 3.1 8 2.9 10.6-.4 2-2.5 2.1-3.9 2.1-27.5V423h7.5c8.8 0 11.5-1.7 11.5-7.4 0-5.4-3.6-7.6-12.1-7.6H419v-12.3c0-11.6.1-12.5 2.3-14.5 2.1-2 3.4-2.2 13-2.2 11.6 0 14.9-.9 16.6-4.7 1.6-3.6 1.4-5.1-1.4-7.8-2.3-2.4-2.9-2.5-15.3-2.5-11.7 0-13.2.2-17.9 2.5z"/></svg>