<svg width="17" height="17" fill="none" xmlns="http://www.w3.org/2000/svg"><path d="M17 4.963c0-.95-.211-1.479-.422-2.112a4.427 4.427 0 00-.95-1.478c-.423-.528-.951-.74-1.479-.95C13.621.21 12.988.105 12.037 0H4.963c-.95 0-1.479.211-2.112.422a4.429 4.429 0 00-1.478.95c-.423.529-.74.951-.95 1.585C.21 3.484.105 4.118 0 4.963v6.969c0 .95.211 1.478.422 2.111.212.528.528 1.056.95 1.479.529.528.951.739 1.479.95.528.211 1.161.317 2.112.422h6.969c.95 0 1.478-.21 2.111-.422a4.427 4.427 0 001.479-.95c.528-.528.739-.95.95-1.479.211-.527.317-1.161.422-2.111.106-.95 0-1.162 0-3.485S17 5.913 17 4.963zm-8.553 7.919c-2.428 0-4.329-2.006-4.329-4.33 0-2.428 2.006-4.328 4.33-4.328 2.428 0 4.328 2.006 4.328 4.329.106 2.323-1.9 4.329-4.329 4.329zm4.54-7.92a1.058 1.058 0 01-1.055-1.055c0-.528.422-1.056 1.056-1.056.527 0 1.056.422 1.056 1.056 0 .633-.423 1.056-1.056 1.056z" fill="#E8E8E8"/><path d="M11.298 8.448A2.84 2.84 0 018.447 11.3a2.84 2.84 0 01-2.851-2.85c0-1.584 1.372-2.746 2.85-2.746 1.585 0 2.852 1.267 2.852 2.745z" fill="#E8E8E8"/></svg>