<svg width="20" height="19" fill="none" xmlns="http://www.w3.org/2000/svg"><path d="M17.652 0H1.354C.607 0 0 .59 0 1.313v15.591c0 .724.607 1.314 1.354 1.314h16.298c.747 0 1.358-.59 1.358-1.314V1.314C19.01.59 18.4 0 17.652 0zM5.745 15.615H2.928V6.921H5.75v8.694h-.005zM4.337 5.734c-.904 0-1.634-.704-1.634-1.566 0-.862.73-1.565 1.634-1.565.9 0 1.633.703 1.633 1.565 0 .866-.73 1.566-1.633 1.566zm11.97 9.881H13.49v-4.229c0-1.008-.022-2.305-1.464-2.305-1.469 0-1.694 1.098-1.694 2.232v4.302H7.515V6.921h2.703V8.11h.038c.378-.684 1.299-1.403 2.67-1.403 2.85 0 3.381 1.801 3.381 4.144v4.765z" fill="#E8E8E8"/></svg>