<svg width="50" height="38" fill="none" xmlns="http://www.w3.org/2000/svg"><path d="M11.16.72c2.56 0 4.68.64 6.36 1.92 1.68 1.2 2.96 2.84 3.84 4.92.88 2 1.32 4.24 1.32 6.72 0 3.28-.68 6.44-2.04 9.48a26.378 26.378 0 01-5.4 8.16c-2.32 2.4-4.96 4.28-7.92 5.64L.24 31.92c2.16-.88 4.12-1.96 5.88-3.24 1.84-1.28 3.4-2.72 4.68-4.32 1.28-1.6 2.2-3.24 2.76-4.92l-.6-.36c-.4.24-.88.48-1.44.72-.56.16-1.36.24-2.4.24-1.28 0-2.56-.32-3.84-.96-1.28-.72-2.36-1.72-3.24-3-.88-1.36-1.32-3.04-1.32-5.04 0-2.16.48-4 1.44-5.52A9.474 9.474 0 016 2.04C7.6 1.16 9.32.72 11.16.72zm27 0c2.56 0 4.68.64 6.36 1.92 1.68 1.2 2.96 2.84 3.84 4.92.88 2 1.32 4.24 1.32 6.72 0 3.28-.68 6.44-2.04 9.48a26.378 26.378 0 01-5.4 8.16c-2.32 2.4-4.96 4.28-7.92 5.64l-7.08-5.64c2.16-.88 4.12-1.96 5.88-3.24 1.84-1.28 3.4-2.72 4.68-4.32 1.28-1.6 2.2-3.24 2.76-4.92l-.6-.36c-.4.24-.88.48-1.44.72-.56.16-1.36.24-2.4.24-1.28 0-2.56-.32-3.84-.96-1.28-.72-2.36-1.72-3.24-3-.88-1.36-1.32-3.04-1.32-5.04 0-2.16.48-4 1.44-5.52A9.474 9.474 0 0133 2.04c1.6-.88 3.32-1.32 5.16-1.32z" fill="#FCD54C"/></svg>