<svg viewBox="0 0 64 64" xmlns="http://www.w3.org/2000/svg"><path d="M32 25.07a3.59 3.59 0 103.59 3.59A3.59 3.59 0 0032 25.07zm0 5.18a1.59 1.59 0 111.59-1.59A1.59 1.59 0 0132 30.25z"/><path d="M55.07 26.07A5.92 5.92 0 0049.23 31h-6.47a10.77 10.77 0 00-2.45-5.9l4.58-4.58a5.91 5.91 0 007.62-.64 6 6 0 000-8.39 5.93 5.93 0 00-9 7.62l-4.61 4.58a10.77 10.77 0 00-5.9-2.45v-6.47a5.93 5.93 0 10-2 0v6.47a10.77 10.77 0 00-5.9 2.45l-4.57-4.58a5.83 5.83 0 001.09-3.42 5.93 5.93 0 10-5.93 5.93 6 6 0 003.42-1.1l4.58 4.58a10.77 10.77 0 00-2.45 5.9h-6.46a5.93 5.93 0 100 2h6.46a10.77 10.77 0 002.45 5.9l-4.58 4.58a5.92 5.92 0 102.51 4.83 5.83 5.83 0 00-1.09-3.42l4.57-4.58a10.77 10.77 0 005.9 2.45v6.47a5.93 5.93 0 102 0v-6.47a10.77 10.77 0 005.9-2.45l4.58 4.58a5.93 5.93 0 101.41-1.41l-4.58-4.58a10.77 10.77 0 002.45-5.9h6.47a5.93 5.93 0 105.84-6.93zm-9.54-13.16a3.94 3.94 0 015.56 0 3.93 3.93 0 11-5.56 5.56 3.94 3.94 0 010-5.56zm-17.46-4A3.93 3.93 0 1132 12.86a3.93 3.93 0 01-3.93-3.93zm-15.16 9.56a3.93 3.93 0 115.56 0 3.94 3.94 0 01-5.56 0zm-4 17.46A3.93 3.93 0 1112.87 32a3.94 3.94 0 01-3.94 3.93zM32 40.81a8.8 8.8 0 01-5.67-2.08 6.44 6.44 0 0111.34 0A8.8 8.8 0 0132 40.81zM18.47 51.09a3.93 3.93 0 110-5.56 3.94 3.94 0 010 5.56zm17.46 4A3.93 3.93 0 1132 51.14a3.93 3.93 0 013.93 3.93zm15.16-9.54a3.93 3.93 0 11-5.56 0 3.94 3.94 0 015.56 0zm-12-8.33a8.44 8.44 0 00-14.18 0A8.76 8.76 0 0123.19 32a8.81 8.81 0 1115.9 5.21zm16-1.27A3.93 3.93 0 0151.14 32a3.93 3.93 0 113.93 3.93z"/></svg>