<svg width="18" height="16" fill="none" xmlns="http://www.w3.org/2000/svg"><path d="M15.635 3.848c.01.169.01.338.01.506 0 5.151-3.593 11.086-10.16 11.086A9.492 9.492 0 010 13.69c.287.037.564.049.862.049 1.67 0 3.207-.615 4.434-1.665-1.57-.036-2.886-1.158-3.339-2.702.221.036.442.06.675.06.32 0 .64-.048.94-.132C1.934 8.938.707 7.37.707 5.476v-.048c.475.29 1.028.47 1.614.495C1.36 5.223.73 4.029.73 2.678c0-.724.177-1.387.486-1.966 1.758 2.364 4.4 3.908 7.364 4.077a4.783 4.783 0 01-.088-.893C8.492 1.75 10.084 0 12.063 0c1.028 0 1.957.47 2.61 1.23a6.685 6.685 0 002.266-.94 3.843 3.843 0 01-1.57 2.147 6.696 6.696 0 002.057-.604 8.094 8.094 0 01-1.791 2.015z" fill="#E8E8E8"/></svg>