<svg width="16" height="15" fill="none" xmlns="http://www.w3.org/2000/svg"><g clip-path="url(#clip0_52_2085)" fill-rule="evenodd" clip-rule="evenodd" fill="#fff"><path d="M13.48 2.375a.75.75 0 00-1.06 0l-9.9 9.9a.75.75 0 001.06 1.06l9.9-9.9a.75.75 0 000-1.06zM9.945-1.16a.75.75 0 00-1.061 0l-9.9 9.9A.75.75 0 00.045 9.8l9.9-9.9a.75.75 0 000-1.06zm7.071 7.07a.75.75 0 00-1.061 0l-9.9 9.9a.75.75 0 101.061 1.06l9.9-9.899a.75.75 0 000-1.06z"/></g><g clip-path="url(#clip1_52_2085)" fill-rule="evenodd" clip-rule="evenodd" fill="#fff"><path d="M2.52 2.375a.75.75 0 011.06 0l9.9 9.9a.75.75 0 01-1.06 1.06l-9.9-9.9a.75.75 0 010-1.06zM6.055-1.16a.75.75 0 011.061 0l9.9 9.9a.75.75 0 11-1.061 1.06l-9.9-9.9a.75.75 0 010-1.06zm-7.071 7.07a.75.75 0 011.061 0l9.9 9.9a.75.75 0 11-1.061 1.06l-9.9-9.899a.75.75 0 010-1.06z"/></g><defs><clipPath id="clip0_52_2085"><path fill="#fff" transform="rotate(-45 14.037 5.001)" d="M0 0h16v5H0z"/></clipPath><clipPath id="clip1_52_2085"><path fill="#fff" transform="scale(-1 1) rotate(-45 6.037 24.315)" d="M0 0h16v5H0z"/></clipPath></defs></svg>